<mxfile host="app.diagrams.net" modified="2021-08-20T23:19:50.630Z" agent="5.0 (Macintosh; Intel Mac OS X 10_15_7) AppleWebKit/537.36 (KHTML, like Gecko) Chrome/92.0.4515.159 Safari/537.36" etag="5eitpltYdMprp2mYXtVz" version="14.9.8" type="github">
  <diagram id="HTO7SNFV_kHhXd0OItEF" name="Page-1">
    <mxGraphModel dx="2044" dy="1148" grid="1" gridSize="10" guides="1" tooltips="1" connect="1" arrows="1" fold="1" page="1" pageScale="1" pageWidth="850" pageHeight="1100" math="0" shadow="0">
      <root>
        <mxCell id="0" />
        <mxCell id="1" parent="0" />
        <mxCell id="vgYQf05N0jR8PMiRx-_D-3" value="My Cart" style="rounded=1;whiteSpace=wrap;html=1;fillColor=#d5e8d4;strokeColor=#82b366;" vertex="1" parent="1">
          <mxGeometry x="690" y="35" width="80" height="30" as="geometry" />
        </mxCell>
        <mxCell id="vgYQf05N0jR8PMiRx-_D-5" value="" style="shape=link;html=1;" edge="1" parent="1">
          <mxGeometry width="100" relative="1" as="geometry">
            <mxPoint x="50" y="90" as="sourcePoint" />
            <mxPoint x="790" y="90" as="targetPoint" />
          </mxGeometry>
        </mxCell>
        <mxCell id="vgYQf05N0jR8PMiRx-_D-7" value="Design My Gown" style="text;html=1;strokeColor=none;fillColor=none;align=center;verticalAlign=middle;whiteSpace=wrap;rounded=0;" vertex="1" parent="1">
          <mxGeometry x="467" y="45" width="130" height="20" as="geometry" />
        </mxCell>
        <mxCell id="vgYQf05N0jR8PMiRx-_D-8" value="LOGO" style="rounded=0;whiteSpace=wrap;html=1;" vertex="1" parent="1">
          <mxGeometry x="70" y="20" width="120" height="60" as="geometry" />
        </mxCell>
        <mxCell id="vgYQf05N0jR8PMiRx-_D-11" value="" style="rounded=0;whiteSpace=wrap;html=1;" vertex="1" parent="1">
          <mxGeometry x="80" y="100" width="680" height="260" as="geometry" />
        </mxCell>
        <mxCell id="vgYQf05N0jR8PMiRx-_D-12" value="" style="html=1;shadow=0;dashed=0;align=center;verticalAlign=middle;shape=mxgraph.arrows2.arrow;dy=0.6;dx=40;notch=0;" vertex="1" parent="1">
          <mxGeometry x="680" y="210" width="60" height="20" as="geometry" />
        </mxCell>
        <mxCell id="vgYQf05N0jR8PMiRx-_D-13" value="" style="html=1;shadow=0;dashed=0;align=center;verticalAlign=middle;shape=mxgraph.arrows2.arrow;dy=0.6;dx=40;notch=0;rotation=-180;" vertex="1" parent="1">
          <mxGeometry x="100" y="210" width="60" height="20" as="geometry" />
        </mxCell>
        <mxCell id="vgYQf05N0jR8PMiRx-_D-15" value="PICTURES" style="text;html=1;strokeColor=none;fillColor=none;align=center;verticalAlign=middle;whiteSpace=wrap;rounded=0;" vertex="1" parent="1">
          <mxGeometry x="385" y="210" width="40" height="20" as="geometry" />
        </mxCell>
        <mxCell id="vgYQf05N0jR8PMiRx-_D-17" value="Accessories" style="text;html=1;strokeColor=none;fillColor=none;align=center;verticalAlign=middle;whiteSpace=wrap;rounded=0;" vertex="1" parent="1">
          <mxGeometry x="560" y="45" width="130" height="20" as="geometry" />
        </mxCell>
        <mxCell id="vgYQf05N0jR8PMiRx-_D-19" value="Send in any photos/sketches" style="whiteSpace=wrap;html=1;aspect=fixed;" vertex="1" parent="1">
          <mxGeometry x="120" y="500" width="120" height="120" as="geometry" />
        </mxCell>
        <mxCell id="vgYQf05N0jR8PMiRx-_D-20" value="&lt;font style=&quot;font-size: 27px&quot;&gt;HOW IT WORKS&lt;/font&gt;" style="text;html=1;strokeColor=none;fillColor=none;align=center;verticalAlign=middle;whiteSpace=wrap;rounded=0;" vertex="1" parent="1">
          <mxGeometry x="290" y="420" width="230" height="20" as="geometry" />
        </mxCell>
        <mxCell id="vgYQf05N0jR8PMiRx-_D-21" value="Confirm zoom meeting call" style="whiteSpace=wrap;html=1;aspect=fixed;" vertex="1" parent="1">
          <mxGeometry x="280" y="500" width="120" height="120" as="geometry" />
        </mxCell>
        <mxCell id="vgYQf05N0jR8PMiRx-_D-22" value="Send in your measurements" style="whiteSpace=wrap;html=1;aspect=fixed;" vertex="1" parent="1">
          <mxGeometry x="440" y="500" width="120" height="120" as="geometry" />
        </mxCell>
        <mxCell id="vgYQf05N0jR8PMiRx-_D-23" value="Receive your dress" style="whiteSpace=wrap;html=1;aspect=fixed;" vertex="1" parent="1">
          <mxGeometry x="600" y="500" width="120" height="120" as="geometry" />
        </mxCell>
        <mxCell id="vgYQf05N0jR8PMiRx-_D-24" value="&lt;span style=&quot;font-size: 27px&quot;&gt;Select from our Selection&lt;/span&gt;" style="text;html=1;strokeColor=none;fillColor=none;align=center;verticalAlign=middle;whiteSpace=wrap;rounded=0;" vertex="1" parent="1">
          <mxGeometry x="265" y="680" width="320" height="20" as="geometry" />
        </mxCell>
        <mxCell id="vgYQf05N0jR8PMiRx-_D-25" value="" style="whiteSpace=wrap;html=1;aspect=fixed;" vertex="1" parent="1">
          <mxGeometry x="135" y="740" width="80" height="80" as="geometry" />
        </mxCell>
        <mxCell id="vgYQf05N0jR8PMiRx-_D-26" value="" style="whiteSpace=wrap;html=1;aspect=fixed;" vertex="1" parent="1">
          <mxGeometry x="255" y="740" width="80" height="80" as="geometry" />
        </mxCell>
        <mxCell id="vgYQf05N0jR8PMiRx-_D-27" value="" style="whiteSpace=wrap;html=1;aspect=fixed;" vertex="1" parent="1">
          <mxGeometry x="375" y="740" width="80" height="80" as="geometry" />
        </mxCell>
        <mxCell id="vgYQf05N0jR8PMiRx-_D-28" value="" style="whiteSpace=wrap;html=1;aspect=fixed;" vertex="1" parent="1">
          <mxGeometry x="507" y="740" width="80" height="80" as="geometry" />
        </mxCell>
        <mxCell id="vgYQf05N0jR8PMiRx-_D-29" value="" style="whiteSpace=wrap;html=1;aspect=fixed;" vertex="1" parent="1">
          <mxGeometry x="625" y="740" width="80" height="80" as="geometry" />
        </mxCell>
        <mxCell id="vgYQf05N0jR8PMiRx-_D-31" value="&lt;span style=&quot;font-size: 27px&quot;&gt;CONTACT FORM&lt;/span&gt;" style="text;html=1;strokeColor=none;fillColor=none;align=center;verticalAlign=middle;whiteSpace=wrap;rounded=0;" vertex="1" parent="1">
          <mxGeometry x="245" y="880" width="320" height="20" as="geometry" />
        </mxCell>
        <mxCell id="vgYQf05N0jR8PMiRx-_D-32" value="First Name" style="rounded=1;whiteSpace=wrap;html=1;" vertex="1" parent="1">
          <mxGeometry x="267.5" y="940" width="115" height="20" as="geometry" />
        </mxCell>
        <mxCell id="vgYQf05N0jR8PMiRx-_D-33" value="Last Name" style="rounded=1;whiteSpace=wrap;html=1;" vertex="1" parent="1">
          <mxGeometry x="447.5" y="940" width="115" height="20" as="geometry" />
        </mxCell>
        <mxCell id="vgYQf05N0jR8PMiRx-_D-34" value="Email" style="rounded=1;whiteSpace=wrap;html=1;" vertex="1" parent="1">
          <mxGeometry x="267.5" y="990" width="115" height="20" as="geometry" />
        </mxCell>
        <mxCell id="vgYQf05N0jR8PMiRx-_D-35" value="Phone Number" style="rounded=1;whiteSpace=wrap;html=1;" vertex="1" parent="1">
          <mxGeometry x="447.5" y="990" width="115" height="20" as="geometry" />
        </mxCell>
        <mxCell id="vgYQf05N0jR8PMiRx-_D-36" value="Date of Event" style="rounded=1;whiteSpace=wrap;html=1;" vertex="1" parent="1">
          <mxGeometry x="272.5" y="1040" width="115" height="20" as="geometry" />
        </mxCell>
        <mxCell id="vgYQf05N0jR8PMiRx-_D-37" value="Message" style="rounded=1;whiteSpace=wrap;html=1;" vertex="1" parent="1">
          <mxGeometry x="282.5" y="1090" width="290" height="160" as="geometry" />
        </mxCell>
        <mxCell id="vgYQf05N0jR8PMiRx-_D-38" value="City/State" style="rounded=1;whiteSpace=wrap;html=1;" vertex="1" parent="1">
          <mxGeometry x="447.5" y="1040" width="115" height="20" as="geometry" />
        </mxCell>
        <mxCell id="vgYQf05N0jR8PMiRx-_D-40" value="" style="rounded=0;whiteSpace=wrap;html=1;" vertex="1" parent="1">
          <mxGeometry y="1320" width="850" height="190" as="geometry" />
        </mxCell>
        <mxCell id="vgYQf05N0jR8PMiRx-_D-41" value="Seattle Wedding Dress" style="text;html=1;strokeColor=none;fillColor=none;align=center;verticalAlign=middle;whiteSpace=wrap;rounded=0;" vertex="1" parent="1">
          <mxGeometry x="50" y="1350" width="130" height="20" as="geometry" />
        </mxCell>
        <mxCell id="vgYQf05N0jR8PMiRx-_D-42" value="" style="whiteSpace=wrap;html=1;aspect=fixed;fillColor=#fff2cc;strokeColor=#d6b656;" vertex="1" parent="1">
          <mxGeometry x="65" y="1380" width="100" height="100" as="geometry" />
        </mxCell>
        <mxCell id="vgYQf05N0jR8PMiRx-_D-43" value="Useful Links" style="text;html=1;strokeColor=none;fillColor=none;align=center;verticalAlign=middle;whiteSpace=wrap;rounded=0;" vertex="1" parent="1">
          <mxGeometry x="230" y="1350" width="130" height="20" as="geometry" />
        </mxCell>
        <mxCell id="vgYQf05N0jR8PMiRx-_D-44" value="Shipping rates" style="text;html=1;strokeColor=none;fillColor=none;align=center;verticalAlign=middle;whiteSpace=wrap;rounded=0;" vertex="1" parent="1">
          <mxGeometry x="240" y="1370" width="130" height="20" as="geometry" />
        </mxCell>
        <mxCell id="vgYQf05N0jR8PMiRx-_D-45" value="FAQ" style="text;html=1;strokeColor=none;fillColor=none;align=center;verticalAlign=middle;whiteSpace=wrap;rounded=0;" vertex="1" parent="1">
          <mxGeometry x="220" y="1400" width="130" height="10" as="geometry" />
        </mxCell>
        <mxCell id="vgYQf05N0jR8PMiRx-_D-46" value="Contact" style="text;html=1;strokeColor=none;fillColor=none;align=center;verticalAlign=middle;whiteSpace=wrap;rounded=0;" vertex="1" parent="1">
          <mxGeometry x="420" y="1350" width="130" height="20" as="geometry" />
        </mxCell>
        <mxCell id="vgYQf05N0jR8PMiRx-_D-47" value="123-4565" style="text;html=1;strokeColor=none;fillColor=none;align=center;verticalAlign=middle;whiteSpace=wrap;rounded=0;" vertex="1" parent="1">
          <mxGeometry x="442.5" y="1370" width="130" height="20" as="geometry" />
        </mxCell>
        <mxCell id="vgYQf05N0jR8PMiRx-_D-48" value="fakeemail@gmail.com" style="text;html=1;strokeColor=none;fillColor=none;align=center;verticalAlign=middle;whiteSpace=wrap;rounded=0;" vertex="1" parent="1">
          <mxGeometry x="482" y="1395" width="130" height="20" as="geometry" />
        </mxCell>
        <mxCell id="vgYQf05N0jR8PMiRx-_D-49" value="@2021 seattlegownshop" style="text;html=1;strokeColor=none;fillColor=none;align=center;verticalAlign=middle;whiteSpace=wrap;rounded=0;" vertex="1" parent="1">
          <mxGeometry x="318.5" y="1480" width="203" height="20" as="geometry" />
        </mxCell>
        <mxCell id="vgYQf05N0jR8PMiRx-_D-50" value="submit" style="rounded=1;whiteSpace=wrap;html=1;" vertex="1" parent="1">
          <mxGeometry x="467" y="1270" width="115" height="20" as="geometry" />
        </mxCell>
      </root>
    </mxGraphModel>
  </diagram>
</mxfile>
